<svg id="logo-dark" xmlns="http://www.w3.org/2000/svg" width="1619.68" height="280.769" viewBox="0 0 1619.68 280.769">
  <path id="Path_8" data-name="Path 8" d="M113.575-28.91q21.476,0,41.713-14.868l17.759,28.5A119.459,119.459,0,0,1,143.518-1.033,99.435,99.435,0,0,1,112.749,4.13q-28.5,0-49.766-11.771A82.67,82.67,0,0,1,30.149-40.061Q18.585-60.711,18.585-86.73a87.377,87.377,0,0,1,12.6-46.049,91.442,91.442,0,0,1,34.486-33.04A96.857,96.857,0,0,1,113.575-178q33.453,0,55.962,19.618t30.768,54.722L64.841-56.168A53.789,53.789,0,0,0,84.872-36.138,56.633,56.633,0,0,0,113.575-28.91Zm-2.891-118.531q-23.541,0-38.822,16.52T56.581-88.795a82.144,82.144,0,0,0,.413,9.5l99.533-36.757a56.824,56.824,0,0,0-17.553-22.715Q127.617-147.441,110.684-147.441Zm174.7,16.933a75.9,75.9,0,0,1,18.792-24.78,95.368,95.368,0,0,1,25.813-16.52q13.629-5.782,23.954-6.2l-1.652,38.409a62.875,62.875,0,0,0-33.659,7.434,59.844,59.844,0,0,0-23.541,22.921,61.371,61.371,0,0,0-8.466,31.182V0H248.213V-170.982h34.279ZM381.2-87.143a89.632,89.632,0,0,1,12.184-46.049,87.279,87.279,0,0,1,33.866-32.833Q448.931-178,476.189-178t48.527,11.977a85.528,85.528,0,0,1,33.04,32.627q11.77,20.65,11.771,46.256T557.756-40.681A84.734,84.734,0,0,1,524.51-7.847Q503.034,4.13,475.363,4.13q-26.845,0-48.321-11.358a83.752,83.752,0,0,1-33.66-32.008Q381.2-59.885,381.2-87.143Zm38.822.413a62.486,62.486,0,0,0,7.227,29.736,55.268,55.268,0,0,0,19.824,21.476,51.675,51.675,0,0,0,27.878,7.847q23.954,0,39.648-16.933T530.292-86.73q0-25.193-15.694-42.332T474.95-146.2a50.4,50.4,0,0,0-28.084,8.053,57.419,57.419,0,0,0-19.618,21.682A62.486,62.486,0,0,0,420.021-86.73Zm307.272-90.86q23.954,0,39.648,14.248t16.107,36.963V0H744.226V-113.162q-.826-14.455-8.673-22.715t-23.541-8.673q-22.715,0-37.583,18.172T659.561-80.122V0H621.152V-170.982h34.692l2.478,33.04a67.05,67.05,0,0,1,27.258-29.117Q703.752-177.59,727.293-177.59Zm160.657,6.608V0H849.541V-170.982Zm-41.3-61.537a19.585,19.585,0,0,1,7.021-15.281,23.641,23.641,0,0,1,16.107-6.2,22.9,22.9,0,0,1,15.9,6.2,19.837,19.837,0,0,1,6.814,15.281,19.837,19.837,0,0,1-6.814,15.281,22.9,22.9,0,0,1-15.9,6.195,23.641,23.641,0,0,1-16.107-6.195A19.585,19.585,0,0,1,846.65-232.519ZM1093.624-16.107a86.25,86.25,0,0,1-27.465,14.868,100.7,100.7,0,0,1-32.42,5.369q-27.671,0-48.941-11.151a80.337,80.337,0,0,1-33.04-31.595q-11.77-20.443-11.77-47.288,0-26.432,12.39-46.875a85.652,85.652,0,0,1,33.04-31.595,92.412,92.412,0,0,1,44.6-11.151q39.235,0,64.841,21.476l-19.411,25.193a83.742,83.742,0,0,0-19-10.531,61.178,61.178,0,0,0-23.128-4.337,52.719,52.719,0,0,0-27.877,7.641,54.5,54.5,0,0,0-19.824,20.857A60.1,60.1,0,0,0,978.4-85.9a57.526,57.526,0,0,0,7.641,29.323,57.731,57.731,0,0,0,20.857,21.063q13.216,7.847,30.149,7.847,21.063,0,36.757-12.39Zm225.085-154.875V0H1280.3V-28.084q-9.086,11.977-26.432,22.1T1214.633,4.13q-24.367,0-43.984-10.532a76.584,76.584,0,0,1-30.975-30.769q-11.357-20.237-11.358-48.321t11.771-48.94a83.186,83.186,0,0,1,31.8-32.214,88.432,88.432,0,0,1,44.4-11.357q21.889,0,38,9.5a77.363,77.363,0,0,1,26.019,24.78l2.891-27.258ZM1224.958-27.671q21.063,0,36.137-11.771t19.2-32.008v-33.866a52.683,52.683,0,0,0-20.65-29.53,59.721,59.721,0,0,0-35.931-11.357,56.048,56.048,0,0,0-28.291,7.434,54.646,54.646,0,0,0-20.65,20.856,60.266,60.266,0,0,0-7.641,30.355,59.341,59.341,0,0,0,7.847,30.149,60.026,60.026,0,0,0,21.063,21.683A54.515,54.515,0,0,0,1224.958-27.671Z" transform="translate(300.971 253.995)" fill="#1b1b1b"/>
  <path id="Path_1" data-name="Path 1" d="M3632.286,3876.8l104.054,180.229-46.3,80.131-150.3-260.33Z" transform="translate(-3539.743 -3856.394)" fill="#1b1b1b" fill-rule="evenodd"/>
  <path id="Path_2" data-name="Path 2" d="M4163.228,3956.75l-46.246-80.1,92.544-.029Z" transform="translate(-3908.759 -3856.276)" fill="#1b1b1b" fill-rule="evenodd"/>
</svg>
